<svg width="250" height="127" viewBox="0 0 250 127" fill="none" xmlns="http://www.w3.org/2000/svg">
<g clip-path="url(#clip0_1_2553)">
<path d="M32.643 119.369C32.429 119.379 32.2172 119.323 32.0362 119.208C31.8552 119.093 31.7138 118.926 31.6312 118.728C31.5485 118.53 31.5287 118.312 31.5742 118.103C31.6198 117.893 31.7285 117.703 31.8858 117.558C31.9122 117.453 31.9311 117.378 31.9574 117.273C31.948 117.25 31.9385 117.227 31.929 117.205C31.7134 116.695 31.3522 116.261 30.8907 115.956C30.4292 115.652 29.888 115.49 29.3351 115.492C28.7822 115.494 28.2422 115.66 27.783 115.968C27.3238 116.276 26.9658 116.713 26.754 117.224C25.9076 119.263 24.83 121.306 24.5647 123.462C24.4478 124.415 24.4971 125.381 24.7104 126.317C22.7225 121.979 21.6902 117.264 21.6835 112.492C21.6831 111.295 21.7496 110.098 21.8828 108.908C21.9928 107.933 22.1454 106.964 22.3407 106.002C23.4062 100.784 25.6938 95.8931 29.0158 91.7311C30.6236 90.8535 31.9238 89.504 32.7413 87.8644C33.0375 87.275 33.2468 86.6459 33.3628 85.9965C33.1814 86.0203 32.997 86.0352 32.8157 86.047C32.7592 86.05 32.6997 86.053 32.6432 86.056L32.6219 86.0569C32.4226 86.0659 32.2249 86.017 32.0527 85.9162C31.8805 85.8153 31.7411 85.6669 31.6513 85.4886C31.5614 85.3104 31.525 85.11 31.5464 84.9115C31.5678 84.7131 31.6461 84.525 31.7718 84.3701C31.8502 84.2736 31.9285 84.1773 32.0069 84.081C32.1258 83.9322 32.2477 83.7865 32.3667 83.6378C32.3804 83.6236 32.3933 83.6088 32.4053 83.5931C32.5421 83.4236 32.6789 83.2571 32.8157 83.0875C32.566 82.6999 32.2302 82.3752 31.8345 82.1387C30.4638 81.3356 28.5727 81.8918 27.5826 83.1321C26.5895 84.3724 26.4022 86.1125 26.7471 87.6621C27.0863 88.9807 27.6473 90.232 28.4062 91.3623C28.3319 91.4574 28.2546 91.5497 28.1802 91.6448C26.8214 93.3927 25.6371 95.2696 24.6443 97.2486C24.8857 95.0316 24.5976 92.7889 23.8035 90.7049C22.9987 88.7628 21.4903 87.1271 20.1619 85.4482C18.5664 83.4315 15.2945 84.3116 15.0134 86.8681C15.0107 86.8928 15.008 86.9176 15.0054 86.9423C15.2027 87.0537 15.3959 87.1719 15.5848 87.2969C15.8222 87.4555 16.0062 87.6823 16.1126 87.9473C16.219 88.2123 16.2429 88.5033 16.1811 88.7822C16.1194 89.061 15.9748 89.3147 15.7665 89.51C15.5582 89.7053 15.2957 89.833 15.0135 89.8765L14.9846 89.881C15.0549 90.5924 15.1792 91.2974 15.3563 91.9899C15.8695 93.9231 16.7765 95.7295 18.0203 97.2957C19.2641 98.8619 20.818 100.154 22.5844 101.091C22.7004 101.151 22.8134 101.21 22.9294 101.267C21.9319 104.095 21.3062 107.04 21.068 110.03C20.9332 111.793 20.9412 113.565 21.0919 115.327L21.0829 115.264C20.7023 113.305 19.6573 111.537 18.1245 110.259C15.8478 108.388 12.6312 107.699 10.1751 106.195C9.91402 106.027 9.61051 105.938 9.30031 105.937C8.99011 105.936 8.68616 106.024 8.42432 106.191C8.16247 106.357 7.95365 106.595 7.82248 106.876C7.69131 107.157 7.64327 107.47 7.68401 107.778C7.68731 107.8 7.69066 107.821 7.69406 107.843C8.0602 107.993 8.41669 108.164 8.76147 108.358C8.95878 108.469 9.15191 108.587 9.34088 108.712C9.57828 108.871 9.76223 109.098 9.86863 109.363C9.97503 109.628 9.99891 109.919 9.93716 110.198C9.8754 110.477 9.73088 110.73 9.52254 110.926C9.3142 111.121 9.05174 111.249 8.76957 111.292L8.74065 111.297C8.71984 111.3 8.702 111.303 8.68122 111.306C9.30682 112.8 10.1849 114.175 11.2769 115.371C12.626 116.82 14.2565 117.977 16.0684 118.772C17.8804 119.567 19.8357 119.984 21.8144 119.997H21.8174C22.3545 122.332 23.1327 124.604 24.1395 126.778H32.4351C32.4648 126.686 32.4916 126.591 32.5184 126.499C31.7505 126.547 30.9796 126.501 30.2229 126.362C30.8384 125.606 31.4539 124.845 32.0694 124.089C32.0831 124.075 32.096 124.06 32.108 124.045C32.4202 123.658 32.7354 123.274 33.0476 122.888L33.0478 122.887C33.0644 121.702 32.9284 120.52 32.6432 119.369L32.643 119.369Z" fill="#F2F2F2"/>
<path d="M198.048 114.425C198.206 114.571 198.404 114.664 198.616 114.693C198.828 114.722 199.044 114.684 199.235 114.586C199.425 114.488 199.581 114.334 199.681 114.145C199.781 113.955 199.82 113.739 199.793 113.527C199.84 113.43 199.874 113.36 199.922 113.263C199.943 113.251 199.965 113.24 199.987 113.229C200.48 112.978 201.036 112.878 201.585 112.942C202.134 113.006 202.652 113.231 203.074 113.589C203.496 113.946 203.803 114.421 203.956 114.952C204.109 115.484 204.102 116.048 203.935 116.576C203.271 118.681 202.781 120.939 201.596 122.759C201.073 123.564 200.413 124.272 199.648 124.851C203.96 122.811 207.784 119.868 210.86 116.22C211.631 115.304 212.35 114.345 213.014 113.349C213.558 112.532 214.064 111.692 214.533 110.83C217.076 106.151 218.473 100.935 218.609 95.6107C217.943 93.9038 217.816 92.0338 218.246 90.2526C218.398 89.6109 218.643 88.9946 218.972 88.423C219.096 88.558 219.227 88.6881 219.358 88.814C219.4 88.8526 219.443 88.8932 219.484 88.9319L219.5 88.9463C219.647 89.0815 219.83 89.1714 220.026 89.2052C220.223 89.2389 220.425 89.2151 220.609 89.1365C220.792 89.0579 220.949 88.928 221.06 88.7624C221.172 88.5967 221.233 88.4024 221.236 88.2028C221.238 88.0786 221.24 87.9544 221.242 87.8302C221.247 87.6398 221.247 87.4498 221.252 87.2594C221.251 87.2398 221.25 87.22 221.251 87.2004C221.256 86.9825 221.258 86.767 221.263 86.5492C221.703 86.4133 222.169 86.3811 222.624 86.4549C224.19 86.723 225.279 88.3664 225.239 89.9532C225.2 91.5418 224.224 92.994 222.963 93.9578C221.855 94.7485 220.62 95.3447 219.312 95.721C219.308 95.8417 219.308 95.9621 219.303 96.0828C219.219 98.2954 218.917 100.494 218.403 102.648C219.645 100.796 221.309 99.2653 223.258 98.1819C225.123 97.2139 227.33 96.9335 229.427 96.5041C231.946 95.9882 233.883 98.7686 232.453 100.906C232.439 100.927 232.426 100.947 232.412 100.968C232.189 100.926 231.965 100.892 231.74 100.866C231.456 100.835 231.17 100.89 230.918 101.024C230.666 101.158 230.46 101.366 230.328 101.619C230.196 101.872 230.143 102.159 230.177 102.443C230.211 102.726 230.329 102.993 230.517 103.208L230.537 103.23C230.025 103.729 229.476 104.189 228.895 104.605C227.258 105.754 225.402 106.552 223.442 106.95C221.483 107.347 219.462 107.336 217.507 106.915C217.38 106.886 217.255 106.859 217.13 106.828C216.074 109.634 214.657 112.291 212.916 114.732C211.884 116.168 210.738 117.519 209.489 118.77L209.536 118.728C211.088 117.474 213.026 116.794 215.021 116.803C217.967 116.837 220.872 118.381 223.719 118.812C224.027 118.852 224.317 118.979 224.555 119.178C224.793 119.377 224.969 119.64 225.062 119.936C225.155 120.232 225.162 120.548 225.081 120.848C225.001 121.148 224.836 121.418 224.607 121.627C224.591 121.642 224.574 121.656 224.557 121.671C224.181 121.549 223.798 121.451 223.409 121.377C223.187 121.335 222.963 121.302 222.738 121.276C222.454 121.244 222.167 121.299 221.915 121.433C221.663 121.568 221.458 121.775 221.326 122.028C221.193 122.281 221.141 122.569 221.175 122.852C221.208 123.136 221.327 123.403 221.515 123.618L221.534 123.64C221.548 123.655 221.56 123.669 221.574 123.685C220.134 124.425 218.577 124.913 216.971 125.125C215.007 125.364 213.015 125.2 211.116 124.642C209.218 124.083 207.453 123.143 205.931 121.879L205.929 121.877C204.015 123.318 201.957 124.556 199.788 125.571L193.439 120.229C193.476 120.14 193.517 120.049 193.556 119.962C194.112 120.493 194.732 120.954 195.4 121.335C195.415 120.361 195.434 119.382 195.45 118.407C195.448 118.387 195.448 118.368 195.449 118.348C195.459 117.851 195.464 117.355 195.474 116.858L195.474 116.857C196.224 115.939 197.089 115.122 198.048 114.425L198.048 114.425Z" fill="#F2F2F2"/>
<path d="M60.9127 69.5382C60.6804 69.4822 60.4632 69.3759 60.2764 69.2269C60.0896 69.0778 59.9377 68.8896 59.8315 68.6755C59.7253 68.4614 59.6673 68.2266 59.6616 67.9876C59.6559 67.7486 59.7026 67.5113 59.7985 67.2924L55.5368 63.3446L58.468 62.6245L62.0656 66.4838C62.4226 66.6694 62.6991 66.9795 62.8428 67.3553C62.9865 67.7312 62.9874 68.1468 62.8453 68.5233C62.7032 68.8998 62.428 69.211 62.0718 69.3981C61.7156 69.5851 61.3031 69.635 60.9126 69.5382H60.9127Z" fill="#FFB6B6"/>
<path d="M47.9075 58.7712L43.4406 45.7272C43.0876 44.6929 43.1592 43.5608 43.6397 42.5792C44.1201 41.5976 44.9702 40.8468 46.0034 40.4915C46.5756 40.2954 47.184 40.2277 47.7853 40.2933C48.3866 40.3589 48.9662 40.5561 49.4827 40.8709C49.9993 41.1857 50.4402 41.6104 50.7743 42.1149C51.1083 42.6193 51.3272 43.1912 51.4155 43.7898L53.201 55.9003L60.67 63.552L58.7054 66.3522L47.9075 58.7712Z" fill="#3F3D56"/>
<path d="M40.5334 120.308H43.7224L45.2395 108.004H40.5328L40.5334 120.308Z" fill="#FFB6B6"/>
<path d="M39.4536 118.735L44.4946 118.434V120.594L49.2872 123.905C49.5239 124.069 49.7022 124.304 49.796 124.576C49.8898 124.848 49.8942 125.143 49.8086 125.418C49.723 125.692 49.5519 125.933 49.3201 126.103C49.0884 126.274 48.8083 126.366 48.5206 126.366H38.818L39.4536 118.735Z" fill="#2F2E41"/>
<path d="M43.3195 62.5119C43.3195 62.5119 42.3253 61.4701 40.4199 63.9315C38.6596 66.1603 38.7471 66.5954 38.9743 69.4269C39.1593 71.4515 37.3461 81.6272 39.1531 83.3568L40.6103 115.947C40.6103 115.947 45.0312 117.189 45.2394 115.106L56.654 73.6647L55.2902 63.0692L43.3195 62.5119Z" fill="#2F2E41"/>
<path d="M64.4326 120L67.2271 118.463L62.6305 106.95L58.5061 109.218L64.4326 120Z" fill="#FFB6B6"/>
<path d="M62.7285 119.142L67.0009 116.448L68.0415 118.342L73.8358 118.933C74.122 118.962 74.3914 119.082 74.6046 119.275C74.8178 119.469 74.9638 119.725 75.0211 120.007C75.0784 120.289 75.044 120.582 74.9231 120.843C74.8022 121.104 74.601 121.32 74.3489 121.458L69.0899 124.351L67.8295 125.044L65.8466 126.135L62.7285 119.142Z" fill="#2F2E41"/>
<path d="M39.0385 68.0108C39.0385 68.0108 38.9808 73.2608 38.4966 76.336C38.0275 79.1375 38.6353 82.0128 40.198 84.3845C41.3352 86.0695 43.0102 87.6402 45.4267 88.2849L62.3996 116.141C62.3996 116.141 66.8714 115.098 66.0509 113.173L56.0947 71.3572L49.7967 62.7297L39.0385 68.0108Z" fill="#2F2E41"/>
<path d="M38.9012 53.1574L38.3961 69.4267L55.2388 64.7641L55.5351 63.9597L56.2572 61.2203C56.2572 61.2203 54.5872 57.279 54.9277 48.1017L50.6732 36.7545L43.9343 36.6167L43.8967 36.6543C41.7683 38.7798 40.1984 41.3988 39.3268 44.2782C38.4552 47.1576 38.309 50.2079 38.9012 53.1574Z" fill="#3F3D56"/>
<path d="M72.7832 59.8439C72.5546 59.9134 72.3135 59.932 72.077 59.8983C71.8404 59.8646 71.6141 59.7794 71.414 59.6487C71.214 59.518 71.045 59.345 70.9189 59.142C70.7929 58.9389 70.7129 58.7106 70.6846 58.4733L65.0104 57.2322L67.1719 55.1248L72.2289 56.6264C72.6306 56.6053 73.0261 56.7323 73.3405 56.9834C73.6549 57.2345 73.8663 57.5923 73.9346 57.9889C74.0029 58.3855 73.9235 58.7933 73.7112 59.1352C73.499 59.4771 73.1688 59.7293 72.7832 59.8439V59.8439Z" fill="#FFB6B6"/>
<path d="M56.1165 57.1599L45.6549 48.1826C44.8265 47.4701 44.3144 46.458 44.231 45.3682C44.1476 44.2785 44.4998 43.2002 45.2102 42.3699C45.604 41.9106 46.0941 41.5437 46.6456 41.2952C47.1971 41.0468 47.7966 40.9228 48.4014 40.9321C49.0062 40.9415 49.6015 41.0839 50.1451 41.3493C50.6887 41.6146 51.1673 41.9965 51.5468 42.4677L59.2239 52.0005L69.5399 54.8074L69.2659 58.2173L56.1165 57.1599Z" fill="#3F3D56"/>
<path d="M54.2981 25.6382C54.2971 27.4834 53.5951 29.2593 52.3342 30.6061C51.0732 31.9529 49.3477 32.7698 47.5072 32.8914C45.6666 33.0131 43.8486 32.4303 42.4216 31.2611C40.9945 30.092 40.065 28.4239 39.8215 26.5948C39.5779 24.7658 40.0385 22.9125 41.1099 21.4104C42.1812 19.9083 43.7833 18.8698 45.5915 18.5052C47.3997 18.1406 49.2789 18.4772 50.8482 19.4469C52.4176 20.4165 53.5599 21.9466 54.0436 23.7273C54.2128 24.3501 54.2984 24.9927 54.2981 25.6382Z" fill="#FFB8B8"/>
<path d="M51.6515 16.0642C51.0623 16.0467 51.2646 14.9356 50.7898 14.5811C50.7875 14.5919 50.7851 14.6026 50.7826 14.6133C50.7204 14.8534 50.5828 15.067 50.39 15.2229C50.1972 15.3788 49.9595 15.4686 49.7119 15.4792C49.4643 15.4897 49.2198 15.4205 49.0144 15.2816C48.8091 15.1427 48.6538 14.9416 48.5713 14.7077C48.4926 14.4372 48.3501 14.1896 48.1558 13.9857C47.9615 13.7818 47.721 13.6275 47.4547 13.5359C47.4252 14.5657 46.6465 15.4595 45.7175 15.9043C44.7885 16.3491 43.7293 16.4231 42.6995 16.4384C41.6697 16.4536 40.6251 16.4191 39.6264 16.6712C38.6279 16.9233 37.6565 17.516 37.2299 18.4537C36.8032 19.3914 37.1076 20.6824 38.0406 21.1189C37.3178 21.1227 36.7046 21.7193 36.4547 22.3977C36.2498 23.0936 36.1964 23.8252 36.298 24.5435C36.5011 27.203 36.9963 30.0663 38.9322 31.9004C40.4076 33.2983 42.5194 33.8614 44.5515 33.8533C46.5836 33.8451 46.2263 33.6583 48.1911 33.1395C48.1911 33.1395 50.0591 27.7824 49.5887 27.2555C49.1184 26.7285 48.7277 26.0541 48.8128 25.3528C48.8979 24.6515 49.6514 24.0232 50.3052 24.2902C50.1953 24.009 50.1125 23.9554 50.0606 23.9697C50.0936 23.8898 50.1224 23.8082 50.147 23.7253C50.2701 23.3028 50.4916 22.9155 50.7935 22.5953C51.0953 22.2751 51.4689 22.0311 51.8833 21.8834C52.302 21.7475 52.7522 21.743 53.1734 21.8706C53.5947 21.9981 53.9669 22.2515 54.2399 22.5969C56.3914 20.5784 55.0566 16.1653 51.6515 16.0642Z" fill="#2F2E41"/>
<path d="M176.634 69.5382C176.867 69.4822 177.084 69.3759 177.271 69.2269C177.457 69.0778 177.609 68.8896 177.716 68.6755C177.822 68.4614 177.88 68.2266 177.885 67.9876C177.891 67.7486 177.844 67.5113 177.748 67.2924L182.01 63.3446L179.079 62.6245L175.481 66.4838C175.124 66.6694 174.848 66.9795 174.704 67.3553C174.56 67.7312 174.56 68.1468 174.702 68.5233C174.844 68.8998 175.119 69.211 175.475 69.3981C175.831 69.5851 176.244 69.635 176.634 69.5382H176.634Z" fill="#9E616A"/>
<path d="M178.842 66.3522L176.877 63.552L184.346 55.9003L186.132 43.7898C186.22 43.1912 186.439 42.6193 186.773 42.1149C187.107 41.6104 187.548 41.1857 188.064 40.8709C188.581 40.5561 189.16 40.3589 189.762 40.2933C190.363 40.2277 190.971 40.2954 191.544 40.4915C192.577 40.8468 193.427 41.5976 193.907 42.5792C194.388 43.5608 194.459 44.6929 194.106 45.7272L189.639 58.7712L178.842 66.3522Z" fill="#E6E6E6"/>
<path d="M197.014 120.308H193.825L192.307 108.004H197.014L197.014 120.308Z" fill="#9E616A"/>
<path d="M198.729 126.366H189.026C188.739 126.366 188.459 126.274 188.227 126.103C187.995 125.933 187.824 125.692 187.738 125.418C187.653 125.143 187.657 124.848 187.751 124.576C187.845 124.304 188.023 124.069 188.26 123.906L193.052 120.594V118.434L198.093 118.735L198.729 126.366Z" fill="#2F2E41"/>
<path d="M194.228 62.512C194.228 62.512 196.807 67.0847 198.712 69.5461C200.472 71.7749 200.246 72.9585 200.018 75.79C199.833 77.8146 200.201 81.6272 198.394 83.3568L196.937 115.947C196.937 115.947 192.516 117.189 192.308 115.106L180.893 73.6647L182.257 63.0692L194.228 62.512Z" fill="#2F2E41"/>
<path d="M173.114 120L170.32 118.463L174.917 106.95L179.041 109.218L173.114 120Z" fill="#9E616A"/>
<path d="M171.7 126.135L169.718 125.044L168.457 124.351L163.198 121.458C162.946 121.32 162.745 121.104 162.624 120.843C162.503 120.582 162.469 120.289 162.526 120.007C162.583 119.725 162.729 119.469 162.942 119.275C163.156 119.082 163.425 118.962 163.711 118.933L169.506 118.342L170.546 116.448L174.819 119.142L171.7 126.135Z" fill="#2F2E41"/>
<path d="M198.509 68.0108C198.509 68.0108 198.566 73.2608 199.05 76.336C199.52 79.1375 198.912 82.0128 197.349 84.3845C196.212 86.0695 194.537 87.6402 192.12 88.2849L175.147 116.141C175.147 116.141 170.676 115.098 171.496 113.173L181.452 71.3572L187.75 62.7297L198.509 68.0108Z" fill="#2F2E41"/>
<path d="M193.65 36.6543L193.613 36.6167L186.874 36.7545L182.619 48.1017C182.96 57.279 181.29 61.2203 181.29 61.2203L182.012 63.9597L179.779 77.5252L201.243 73.1809L198.646 53.1574C199.238 50.2079 199.092 47.1576 198.22 44.2782C197.349 41.3988 195.779 38.7798 193.65 36.6543Z" fill="#E6E6E6"/>
<path d="M164.764 59.8439C164.992 59.9134 165.233 59.932 165.47 59.8983C165.707 59.8646 165.933 59.7794 166.133 59.6487C166.333 59.518 166.502 59.345 166.628 59.142C166.754 58.9389 166.834 58.7106 166.862 58.4733L172.537 57.2322L170.375 55.1248L165.318 56.6264C164.916 56.6053 164.521 56.7323 164.206 56.9834C163.892 57.2345 163.681 57.5923 163.612 57.9889C163.544 58.3855 163.624 58.7933 163.836 59.1352C164.048 59.4771 164.378 59.7293 164.764 59.8439L164.764 59.8439Z" fill="#9E616A"/>
<path d="M168.281 58.2173L168.007 54.8074L178.323 52.0005L186 42.4677C186.38 41.9965 186.858 41.6146 187.402 41.3493C187.946 41.0839 188.541 40.9415 189.146 40.9321C189.75 40.9228 190.35 41.0468 190.901 41.2952C191.453 41.5437 191.943 41.9106 192.337 42.3699C193.047 43.2002 193.399 44.2785 193.316 45.3682C193.233 46.458 192.721 47.4701 191.892 48.1826L181.431 57.1599L168.281 58.2173Z" fill="#E6E6E6"/>
<path d="M183.503 23.7273C183.987 21.9466 185.129 20.4165 186.699 19.4469C188.268 18.4772 190.147 18.1406 191.956 18.5052C193.764 18.8698 195.366 19.9083 196.437 21.4104C197.509 22.9125 197.969 24.7658 197.726 26.5948C197.482 28.4239 196.553 30.092 195.125 31.2611C193.698 32.4303 191.88 33.0131 190.04 32.8914C188.199 32.7698 186.474 31.9529 185.213 30.6061C183.952 29.2593 183.25 27.4834 183.249 25.6382C183.249 24.9927 183.334 24.3501 183.503 23.7273Z" fill="#9E616A"/>
<path d="M185.895 16.0643C186.485 16.0468 193.818 16.4233 194.848 16.4385C195.877 16.4537 196.922 16.4192 197.921 16.6713C198.919 16.9234 199.89 17.5161 200.317 18.4538C200.744 19.3915 200.842 21.7194 201.092 22.3978C201.297 23.0937 201.351 23.8254 201.249 24.5436C201.046 27.2031 200.551 30.0664 198.615 31.9006C197.139 33.2984 195.028 33.8615 192.995 33.8534C190.963 33.8453 191.321 33.6584 189.356 33.1396C189.356 33.1396 187.488 27.7826 187.958 27.2556C188.429 26.7286 188.819 26.0543 188.734 25.3529C188.649 24.6516 187.896 24.0233 187.242 24.2903C187.352 24.0091 187.435 23.9556 187.486 23.9699C187.453 23.8899 187.425 23.8084 187.4 23.7255C187.277 23.3029 187.055 22.9156 186.754 22.5954C186.452 22.2752 186.078 22.0312 185.664 21.8836C185.245 21.7476 184.795 21.7432 184.374 21.8707C183.952 21.9982 183.58 22.2517 183.307 22.597C181.156 20.5785 182.49 16.1655 185.895 16.0643Z" fill="#2F2E41"/>
<path d="M72.2769 59.3157C81.6973 58.0808 92.2138 56.8222 100.458 62.6346C103.778 64.9755 106.376 68.3613 107.169 72.4005C107.67 74.9541 107.51 77.5773 107.543 80.1633C107.572 82.4793 107.78 84.7903 108.56 86.9854C109.879 90.6974 112.464 93.8498 115.663 96.1126C119.133 98.5302 123.244 99.861 127.472 99.9361C136.833 100.17 145.369 95.0921 151.329 88.1655C157.729 80.7266 161.4 71.5009 164.604 62.3452C165.027 61.138 165.445 59.9293 165.859 58.7191C166.041 58.19 165.203 57.9627 165.023 58.4884C161.821 67.7957 158.537 77.2928 152.568 85.2474C147.094 92.5428 139.136 98.3424 129.803 99.0128C125.549 99.3184 121.268 98.4802 117.573 96.3132C114.181 94.3236 111.338 91.3271 109.766 87.7001C108.921 85.6423 108.469 83.4439 108.435 81.2192C108.341 78.6445 108.53 76.0562 108.212 73.4921C107.703 69.3823 105.617 65.7968 102.484 63.1184C99.3191 60.4776 95.52 58.709 91.4623 57.9874C86.4095 57.035 81.2367 57.3661 76.1626 57.9583C74.8659 58.1096 73.5713 58.2783 72.2769 58.448C71.7313 58.5195 71.7242 59.3881 72.2769 59.3157Z" fill="#3F3D56"/>
<path d="M149.725 38.3084C148.074 40.0611 145.674 40.9896 143.274 41.1747C141.554 41.3071 139.825 41.0852 138.194 40.5226C136.563 39.9601 135.064 39.0688 133.791 37.904C132.518 36.7391 131.498 35.3255 130.792 33.7504C130.087 32.1753 129.712 30.4722 129.691 28.7464C129.665 26.8086 130.087 24.8794 129.992 22.9416C129.755 18.1548 126.395 13.8048 126.753 9.02377L129.055 9.73817C127.511 9.25226 125.967 8.76635 124.423 8.28044C123.894 8.13891 123.386 7.92581 122.914 7.64703C121.566 6.76198 121.17 4.80967 121.818 3.3317C122.469 1.85373 123.969 0.864563 125.551 0.534839C126.627 0.330424 127.733 0.337302 128.806 0.555088C129.32 0.646739 129.828 0.769405 130.327 0.922412C131.782 0.442628 133.328 0.300581 134.846 0.507044C136.365 0.713508 137.816 1.26306 139.09 2.11404C140.64 3.17927 141.859 4.65711 142.612 6.3802C143.093 7.46722 143.374 8.63221 143.442 9.81913C143.615 13.047 142.239 16.3905 142.436 19.5084C142.478 20.3611 142.669 21.2 143 21.9871C144.705 25.9582 150.069 27.5287 151.413 31.6387C152.162 33.9266 151.376 36.5557 149.725 38.3084Z" fill="#2F2E41"/>
<path d="M150.979 100.37L148.765 102.666L138.859 95.2147L142.127 91.8267L150.979 100.37Z" fill="#9E616A"/>
<path d="M156.527 103.341L154.956 104.97L153.957 106.006L149.79 110.326C149.591 110.533 149.33 110.671 149.046 110.72C148.763 110.768 148.471 110.724 148.214 110.595C147.957 110.466 147.748 110.258 147.617 110.002C147.487 109.745 147.442 109.454 147.488 109.17L148.434 103.421L146.88 101.921L150.596 98.5005L156.527 103.341Z" fill="#2F2E41"/>
<path d="M129.696 104.743L126.825 106.133L120.103 95.7168L124.34 93.6667L129.696 104.743Z" fill="#9E616A"/>
<path d="M133.877 109.449L131.84 110.435L130.545 111.061L125.143 113.676C124.884 113.801 124.591 113.84 124.309 113.788C124.026 113.735 123.767 113.593 123.57 113.383C123.374 113.173 123.249 112.906 123.215 112.62C123.181 112.334 123.24 112.045 123.382 111.795L126.255 106.726L125.314 104.781L129.983 102.856L133.877 109.449Z" fill="#2F2E41"/>
<path d="M134.378 47.1826C134.378 47.1826 136.957 51.7554 138.863 54.2167C140.623 56.4456 140.396 57.6292 140.169 60.4606C139.984 62.4853 140.352 66.2979 138.544 68.0275L137.755 85.6901L147.496 96.858C147.496 96.858 143.558 102.457 143.349 100.375L128.928 86.9604L121.044 58.3354L122.407 47.7399L134.378 47.1826Z" fill="#2F2E41"/>
<path d="M138.659 52.6814C138.659 52.6814 138.717 57.9315 139.201 61.0066C139.67 63.8081 139.062 66.6835 137.5 69.0551C136.362 70.7401 134.687 72.3109 132.271 72.9556L124.008 86.5167L128.598 99.6551C128.598 99.6551 122.001 103.457 122.821 101.531L114.836 84.4491L121.603 56.0278L127.901 47.4004L138.659 52.6814Z" fill="#2F2E41"/>
<path d="M133.801 21.3252L133.763 21.2876L127.024 21.4254L122.77 32.7726C123.11 41.9499 121.44 45.8912 121.44 45.8912L122.162 48.6306L122.459 49.435L141.394 57.8518L138.796 37.8283C139.389 34.8788 139.242 31.8285 138.371 28.9491C137.499 26.0697 135.929 23.4507 133.801 21.3252Z" fill="#F9A826"/>
<path d="M104.914 44.5145C105.143 44.5841 105.384 44.6027 105.621 44.5689C105.857 44.5352 106.083 44.45 106.284 44.3193C106.484 44.1887 106.653 44.0157 106.779 43.8126C106.905 43.6095 106.985 43.3813 107.013 43.1439L112.687 41.9028L110.526 39.7954L105.469 41.2971C105.067 41.276 104.671 41.403 104.357 41.6541C104.043 41.9052 103.831 42.2629 103.763 42.6595C103.695 43.0561 103.774 43.464 103.986 43.8059C104.199 44.1478 104.529 44.3999 104.914 44.5145L104.914 44.5145Z" fill="#9E616A"/>
<path d="M108.432 42.888L108.158 39.478L118.474 36.6711L126.151 27.1383C126.53 26.6671 127.009 26.2853 127.552 26.0199C128.096 25.7545 128.691 25.6121 129.296 25.6028C129.901 25.5935 130.5 25.7174 131.052 25.9659C131.604 26.2144 132.094 26.5813 132.487 27.0405C133.198 27.8708 133.55 28.9492 133.467 30.0389C133.383 31.1286 132.871 32.1408 132.043 32.8532L121.581 41.8305L108.432 42.888Z" fill="#F9A826"/>
<path d="M148.577 58.3466C148.669 58.1261 148.712 57.888 148.702 57.6492C148.692 57.4104 148.63 57.1766 148.52 56.9643C148.41 56.752 148.255 56.5664 148.066 56.4206C147.877 56.2747 147.658 56.1722 147.424 56.1202L146.76 50.3479L144.447 52.2874L145.432 57.4715C145.371 57.8692 145.458 58.2757 145.676 58.6138C145.894 58.952 146.228 59.1983 146.616 59.3062C147.004 59.414 147.417 59.3759 147.779 59.1991C148.14 59.0222 148.424 58.7189 148.577 58.3466Z" fill="#9E616A"/>
<path d="M147.313 54.6825L143.893 54.6125L142.139 44.0629L133.429 35.4638C132.999 35.0387 132.667 34.524 132.458 33.9563C132.249 33.3886 132.167 32.7818 132.218 32.1789C132.27 31.576 132.453 30.9918 132.756 30.4679C133.058 29.9439 133.473 29.493 133.969 29.1472C134.866 28.5236 135.974 28.2814 137.049 28.474C138.125 28.6665 139.08 29.2779 139.705 30.1741L147.583 41.4887L147.313 54.6825Z" fill="#F9A826"/>
<path d="M123.654 8.39793C124.138 6.61729 125.28 5.08716 126.849 4.11753C128.419 3.1479 130.298 2.81128 132.106 3.17586C133.914 3.54044 135.516 4.57897 136.588 6.08104C137.659 7.58311 138.12 9.43641 137.876 11.2655C137.633 13.0946 136.703 14.7626 135.276 15.9318C133.849 17.1009 132.031 17.6837 130.19 17.5621C128.35 17.4405 126.624 16.6235 125.363 15.2767C124.102 13.93 123.4 12.1541 123.4 10.3088C123.399 9.6634 123.485 9.02078 123.654 8.39793Z" fill="#9E616A"/>
<path d="M122.73 50.5793C121.461 50.5748 120.212 50.2637 119.089 49.6724C117.966 49.081 117.002 48.2271 116.28 47.1831C115.879 46.5787 115.534 45.8292 115.767 45.0967C115.83 44.8395 115.984 44.6138 116.2 44.4613C116.416 44.3087 116.68 44.2397 116.944 44.2671C117.515 44.347 118.006 44.7837 118.389 45.1842C118.906 45.7561 119.382 46.3652 119.81 47.0066C120.489 47.9662 121.811 49.5198 120.789 50.6691C119.93 51.6358 118.485 51.7176 117.328 52.0661C116.078 52.4428 114.798 53.2877 114.686 54.7128C114.577 56.0988 115.908 57.0339 117.135 57.2348C117.869 57.3393 118.617 57.2623 119.314 57.0105C120.012 56.7586 120.637 56.3396 121.134 55.7902C122.108 54.6642 122.639 53.2227 122.63 51.734C122.628 51.6215 122.582 51.5141 122.503 51.4345C122.423 51.3549 122.316 51.3093 122.203 51.3073C122.091 51.3053 121.982 51.3472 121.9 51.4239C121.817 51.5007 121.768 51.6064 121.762 51.7188C121.741 53.0747 121.297 54.4595 120.293 55.4097C119.353 56.2992 117.859 56.7232 116.634 56.1993C116.029 55.9401 115.465 55.3946 115.559 54.685C115.645 54.0337 116.174 53.5236 116.727 53.2296C117.977 52.5645 119.478 52.6233 120.697 51.856C121.86 51.1242 122.323 49.8998 121.795 48.6017C121.463 47.8815 121.049 47.2015 120.563 46.5749C120.118 45.9167 119.632 45.2862 119.11 44.6868C118.327 43.8252 117.098 42.9902 115.918 43.6053C114.574 44.3063 114.663 46.0643 115.285 47.2143C116.704 49.8365 119.79 51.4357 122.715 51.4471C122.828 51.4451 122.935 51.3995 123.014 51.32C123.094 51.2404 123.14 51.133 123.141 51.0205C123.143 50.908 123.102 50.7991 123.025 50.7168C122.948 50.6345 122.843 50.5852 122.73 50.5793L122.73 50.5793Z" fill="#2F2E41"/>
<path d="M142.436 19.5084L130.911 17.1512C130.492 14.9386 134.363 11.9566 135.369 8.32098C133.571 8.10406 131.163 7.74252 129.078 7.27107C126.993 6.79673 125.23 6.21538 124.721 5.55304C125.09 3.74923 126.161 2.16599 127.697 1.15126C129.233 0.136537 131.108 -0.226646 132.912 0.141528L134.326 0.430759C134.372 0.439436 134.418 0.451005 134.464 0.462575C136.198 0.850485 137.715 1.89153 138.7 3.36935C140.148 4.17015 141.467 5.18524 142.612 6.38024C143.093 7.46726 143.374 8.63225 143.442 9.81918C143.615 13.047 142.239 16.3905 142.436 19.5084Z" fill="#2F2E41"/>
<path d="M250 126.656C250 126.701 249.991 126.746 249.974 126.788C249.957 126.829 249.931 126.867 249.899 126.899C249.868 126.931 249.83 126.957 249.788 126.974C249.746 126.991 249.701 127 249.656 127H0.344063C0.252812 127 0.165301 126.964 0.100777 126.899C0.0362532 126.835 0 126.747 0 126.656C0 126.564 0.0362532 126.477 0.100777 126.412C0.165301 126.348 0.252812 126.312 0.344063 126.312H249.656C249.701 126.311 249.746 126.32 249.788 126.337C249.83 126.355 249.868 126.38 249.899 126.412C249.931 126.444 249.957 126.482 249.974 126.524C249.991 126.566 250 126.61 250 126.656Z" fill="#CCCCCC"/>
<path d="M132.615 120.208C168.978 73.1299 244.987 116.64 299.711 77.5121" stroke="#8F5EC7" stroke-opacity="0.11" stroke-width="4"/>
<path d="M134.499 127.554C170.862 80.4756 246.871 123.986 301.595 84.8578" stroke="#8F5EC7" stroke-opacity="0.11" stroke-width="4"/>
<path d="M136.382 134.899C172.745 87.8213 248.755 131.332 303.479 92.2035" stroke="#8F5EC7" stroke-opacity="0.11" stroke-width="4"/>
<path d="M138.266 142.245C174.629 95.167 250.639 138.677 305.363 99.5492" stroke="#8F5EC7" stroke-opacity="0.11" stroke-width="4"/>
<path d="M140.15 149.591C176.513 102.513 252.523 146.023 307.246 106.895" stroke="#8F5EC7" stroke-opacity="0.11" stroke-width="4"/>
<path d="M142.034 156.937C178.397 109.858 254.406 153.369 309.13 114.241" stroke="#8F5EC7" stroke-opacity="0.11" stroke-width="4"/>
<path d="M145.787 171.632C182.15 124.553 258.159 168.064 312.883 128.936" stroke="#8F5EC7" stroke-opacity="0.11" stroke-width="4"/>
<path d="M143.932 164.279C180.295 117.2 256.304 160.711 311.028 121.583" stroke="#8F5EC7" stroke-opacity="0.11" stroke-width="4"/>
</g>
<defs>
<clipPath id="clip0_1_2553">
<rect width="250" height="127" fill="white"/>
</clipPath>
</defs>
</svg>
