<svg width="20" height="20" viewBox="0 0 20 20" fill="none" xmlns="http://www.w3.org/2000/svg">
<path d="M10 0.625C4.83094 0.625 0.625 4.83094 0.625 10C0.625 15.1697 4.83094 19.375 10 19.375C15.1694 19.375 19.375 15.1697 19.375 10C19.375 4.83094 15.1697 0.625 10 0.625ZM16.2647 15.0637C15.8945 14.7282 15.4982 14.4227 15.0794 14.1503C15.6045 13.0887 15.9238 11.9373 16.0206 10.7569H18.0238C17.8756 12.3347 17.2635 13.8333 16.2647 15.0637ZM1.97688 10.7569H3.94469C4.0423 11.9437 4.36458 13.1011 4.89437 14.1675C4.48541 14.4358 4.09789 14.7355 3.73531 15.0637C2.73646 13.8334 2.12456 12.3347 1.97688 10.7569ZM3.73531 4.93656C4.0975 5.26523 4.48505 5.56481 4.89437 5.8325C4.33452 6.95856 4.00677 8.18569 3.93062 9.44094H1.96031C2.07395 7.79251 2.69386 6.21938 3.73531 4.93656ZM9.34219 2.98719V6.00219C8.43919 5.93121 7.55493 5.70663 6.7275 5.33813C7.41568 4.37183 8.30843 3.56913 9.34219 2.98719ZM9.34219 7.32125V9.44094H5.24906C5.32137 8.41026 5.59272 7.40337 6.04813 6.47594C7.08463 6.95842 8.20144 7.24501 9.34219 7.32125ZM9.34219 10.7569V12.6787C8.19757 12.7555 7.07714 13.044 6.03781 13.5297C5.6155 12.6594 5.3537 11.7201 5.265 10.7569H9.34219ZM9.34219 13.9984V17.0197C8.3014 16.4421 7.40317 15.6388 6.71344 14.6687C7.54479 14.2963 8.43399 14.0695 9.34219 13.9984ZM10.6578 16.9922V13.9984C11.5625 14.0703 12.4334 14.2916 13.2444 14.6497C12.563 15.6096 11.6803 16.409 10.6578 16.9922ZM10.6578 12.6787V10.7569H14.6997C14.6082 11.7141 14.3448 12.6469 13.9222 13.5106C12.8939 13.0365 11.7876 12.7545 10.6578 12.6787ZM10.6578 9.44094V7.32125C11.7881 7.24584 12.8951 6.96389 13.9237 6.48938C14.375 7.41318 14.644 8.41532 14.7159 9.44094H10.6578ZM10.6578 6.00219V3.00719C11.681 3.59012 12.5644 4.3896 13.2463 5.34969C12.4264 5.71147 11.5512 5.93207 10.6578 6.00219ZM13.9166 4.05187C13.2991 3.30488 12.5699 2.65786 11.7547 2.13375C13.0931 2.43321 14.3327 3.07006 15.3556 3.98375C15.06 4.24988 14.745 4.49358 14.4131 4.71281C14.2579 4.48498 14.0922 4.26443 13.9166 4.05187ZM6.04844 4.05219C5.87713 4.25989 5.71499 4.47499 5.5625 4.69688C5.23961 4.48167 4.93267 4.24345 4.64406 3.98406C5.65343 3.08257 6.87389 2.45025 8.1925 2.14563C7.38428 2.66745 6.66114 3.31049 6.04844 4.05219ZM5.56281 15.3034C5.69031 15.4891 5.82469 15.6703 5.96625 15.8466C6.59641 16.6312 7.34861 17.3094 8.19406 17.8553C6.87493 17.5509 5.65399 16.9185 4.64438 16.0166C4.93288 15.757 5.23983 15.5186 5.56281 15.3034ZM13.9294 15.9325C14.1001 15.7245 14.2618 15.5093 14.4141 15.2875C14.7456 15.5069 15.0604 15.7506 15.3559 16.0166C14.3329 16.9301 13.0934 17.5669 11.755 17.8666C12.5758 17.3387 13.3094 16.6862 13.9294 15.9325ZM16.0347 9.44094C15.9593 8.19206 15.6345 6.97094 15.0794 5.84969C15.4982 5.57747 15.8946 5.27212 16.2647 4.93656C17.3063 6.21928 17.9262 7.79246 18.0397 9.44094H16.0347Z" fill="white"/>
</svg>
