<svg width="22" height="28" viewBox="0 0 22 28" fill="none" xmlns="http://www.w3.org/2000/svg">
<path d="M11 0C8.08367 0.00344047 5.28778 1.16347 3.22562 3.22563C1.16347 5.28778 0.00343692 8.08367 -3.5559e-06 11C-0.00349645 13.3832 0.774977 15.7018 2.216 17.6C2.216 17.6 2.516 17.995 2.565 18.052L11 28L19.439 18.047C19.483 17.994 19.784 17.6 19.784 17.6L19.785 17.597C21.2253 15.6996 22.0034 13.3821 22 11C21.9966 8.08367 20.8365 5.28778 18.7744 3.22563C16.7122 1.16347 13.9163 0.00344047 11 0ZM11 15C10.2089 15 9.43551 14.7654 8.77772 14.3259C8.11992 13.8864 7.60723 13.2616 7.30448 12.5307C7.00173 11.7998 6.92251 10.9956 7.07686 10.2196C7.2312 9.44372 7.61216 8.73098 8.17157 8.17157C8.73098 7.61216 9.44371 7.2312 10.2196 7.07686C10.9956 6.92252 11.7998 7.00173 12.5307 7.30448C13.2616 7.60723 13.8863 8.11992 14.3259 8.77772C14.7654 9.43552 15 10.2089 15 11C14.9987 12.0605 14.5768 13.0771 13.827 13.827C13.0771 14.5768 12.0605 14.9987 11 15Z" fill="black"/>
</svg>
