<svg width="209" height="32" viewBox="0 0 209 32" fill="none" xmlns="http://www.w3.org/2000/svg">
<path d="M27.8694 31V11.428L20.2254 26.002H16.9914L9.34736 11.428V31H3.55136V1.18H9.76736L18.5874 18.148L27.4914 1.18H33.6654V31H27.8694ZM52.6172 31.21C50.4332 31.21 48.4452 30.79 46.6532 29.95C44.8892 29.11 43.3632 27.976 42.0752 26.548C40.8152 25.092 39.8352 23.468 39.1352 21.676C38.4352 19.856 38.0852 17.994 38.0852 16.09C38.0852 14.102 38.4492 12.212 39.1772 10.42C39.9332 8.6 40.9552 6.99 42.2432 5.59C43.5592 4.162 45.0992 3.042 46.8632 2.23C48.6552 1.39 50.6152 0.969999 52.7432 0.969999C54.8992 0.969999 56.8592 1.404 58.6232 2.272C60.4152 3.14 61.9412 4.302 63.2012 5.758C64.4612 7.214 65.4412 8.838 66.1412 10.63C66.8412 12.422 67.1912 14.27 67.1912 16.174C67.1912 18.134 66.8272 20.024 66.0992 21.844C65.3712 23.636 64.3492 25.246 63.0332 26.674C61.7452 28.074 60.2052 29.18 58.4132 29.992C56.6492 30.804 54.7172 31.21 52.6172 31.21ZM43.9652 16.09C43.9652 17.378 44.1612 18.624 44.5532 19.828C44.9452 21.032 45.5052 22.11 46.2332 23.062C46.9892 23.986 47.8992 24.728 48.9632 25.288C50.0552 25.82 51.2872 26.086 52.6592 26.086C54.0592 26.086 55.3052 25.806 56.3972 25.246C57.4892 24.658 58.3992 23.888 59.1272 22.936C59.8552 21.956 60.4012 20.878 60.7652 19.702C61.1572 18.498 61.3532 17.294 61.3532 16.09C61.3532 14.802 61.1432 13.57 60.7232 12.394C60.3312 11.19 59.7572 10.126 59.0012 9.202C58.2732 8.25 57.3632 7.508 56.2712 6.976C55.2072 6.416 54.0032 6.136 52.6592 6.136C51.2312 6.136 49.9712 6.43 48.8792 7.018C47.8152 7.578 46.9192 8.334 46.1912 9.286C45.4632 10.238 44.9032 11.302 44.5112 12.478C44.1472 13.654 43.9652 14.858 43.9652 16.09ZM95.9553 31V11.428L88.3113 26.002H85.0773L77.4333 11.428V31H71.6373V1.18H77.8533L86.6733 18.148L95.5773 1.18H101.751V31H95.9553ZM126.037 6.766C125.617 6.29 125.127 5.87 124.567 5.506C124.007 5.114 123.377 4.778 122.677 4.498C121.977 4.218 121.221 3.994 120.409 3.826C119.625 3.658 118.785 3.574 117.889 3.574C115.285 3.574 113.367 4.078 112.135 5.086C110.931 6.066 110.329 7.41 110.329 9.118C110.329 10.294 110.609 11.218 111.169 11.89C111.757 12.562 112.667 13.108 113.899 13.528C115.131 13.948 116.699 14.382 118.603 14.83C120.731 15.278 122.565 15.81 124.105 16.426C125.645 17.042 126.835 17.882 127.675 18.946C128.515 19.982 128.935 21.396 128.935 23.188C128.935 24.56 128.669 25.75 128.137 26.758C127.605 27.766 126.863 28.606 125.911 29.278C124.959 29.95 123.825 30.454 122.509 30.79C121.193 31.098 119.751 31.252 118.183 31.252C116.643 31.252 115.159 31.098 113.731 30.79C112.331 30.454 111.001 29.978 109.741 29.362C108.481 28.718 107.305 27.906 106.213 26.926L107.683 24.532C108.215 25.092 108.845 25.624 109.573 26.128C110.329 26.604 111.155 27.038 112.051 27.43C112.975 27.822 113.955 28.13 114.991 28.354C116.055 28.55 117.147 28.648 118.267 28.648C120.647 28.648 122.495 28.214 123.811 27.346C125.155 26.478 125.827 25.19 125.827 23.482C125.827 22.25 125.491 21.27 124.819 20.542C124.147 19.786 123.139 19.17 121.795 18.694C120.451 18.218 118.799 17.756 116.839 17.308C114.767 16.832 113.017 16.3 111.589 15.712C110.161 15.124 109.083 14.354 108.355 13.402C107.655 12.422 107.305 11.134 107.305 9.538C107.305 7.69 107.753 6.136 108.649 4.876C109.573 3.588 110.833 2.622 112.429 1.978C114.025 1.306 115.859 0.969999 117.931 0.969999C119.247 0.969999 120.465 1.11 121.585 1.39C122.733 1.642 123.783 2.02 124.735 2.524C125.715 3.028 126.625 3.658 127.465 4.414L126.037 6.766ZM154.153 28.396V31H134.119V1.18H153.775V3.784H137.059V14.536H151.633V17.014H137.059V28.396H154.153ZM179.747 28.396V31H159.713V1.18H179.369V3.784H162.653V14.536H177.227V17.014H162.653V28.396H179.747ZM185.306 31V1.222H188.246V18.526L204.668 1.18H207.902L195.722 14.284L208.532 31H205.214L193.832 16.048L188.246 21.844V31H185.306Z" fill="black"/>
</svg>
