<svg width="206" height="32" viewBox="0 0 206 32" fill="none" xmlns="http://www.w3.org/2000/svg">
<path d="M24.8694 31V11.428L17.2254 26.002H13.9914L6.34736 11.428V31H0.551359V1.18H6.76736L15.5874 18.148L24.4914 1.18H30.6654V31H24.8694ZM49.6172 31.21C47.4332 31.21 45.4452 30.79 43.6532 29.95C41.8892 29.11 40.3632 27.976 39.0752 26.548C37.8152 25.092 36.8352 23.468 36.1352 21.676C35.4352 19.856 35.0852 17.994 35.0852 16.09C35.0852 14.102 35.4492 12.212 36.1772 10.42C36.9332 8.6 37.9552 6.99 39.2432 5.59C40.5592 4.162 42.0992 3.042 43.8632 2.23C45.6552 1.39 47.6152 0.969999 49.7432 0.969999C51.8992 0.969999 53.8592 1.404 55.6232 2.272C57.4152 3.14 58.9412 4.302 60.2012 5.758C61.4612 7.214 62.4412 8.838 63.1412 10.63C63.8412 12.422 64.1912 14.27 64.1912 16.174C64.1912 18.134 63.8272 20.024 63.0992 21.844C62.3712 23.636 61.3492 25.246 60.0332 26.674C58.7452 28.074 57.2052 29.18 55.4132 29.992C53.6492 30.804 51.7172 31.21 49.6172 31.21ZM40.9652 16.09C40.9652 17.378 41.1612 18.624 41.5532 19.828C41.9452 21.032 42.5052 22.11 43.2332 23.062C43.9892 23.986 44.8992 24.728 45.9632 25.288C47.0552 25.82 48.2872 26.086 49.6592 26.086C51.0592 26.086 52.3052 25.806 53.3972 25.246C54.4892 24.658 55.3992 23.888 56.1272 22.936C56.8552 21.956 57.4012 20.878 57.7652 19.702C58.1572 18.498 58.3532 17.294 58.3532 16.09C58.3532 14.802 58.1432 13.57 57.7232 12.394C57.3312 11.19 56.7572 10.126 56.0012 9.202C55.2732 8.25 54.3632 7.508 53.2712 6.976C52.2072 6.416 51.0032 6.136 49.6592 6.136C48.2312 6.136 46.9712 6.43 45.8792 7.018C44.8152 7.578 43.9192 8.334 43.1912 9.286C42.4632 10.238 41.9032 11.302 41.5112 12.478C41.1472 13.654 40.9652 14.858 40.9652 16.09ZM92.9553 31V11.428L85.3113 26.002H82.0773L74.4333 11.428V31H68.6373V1.18H74.8533L83.6733 18.148L92.5773 1.18H98.7513V31H92.9553ZM123.037 6.766C122.617 6.29 122.127 5.87 121.567 5.506C121.007 5.114 120.377 4.778 119.677 4.498C118.977 4.218 118.221 3.994 117.409 3.826C116.625 3.658 115.785 3.574 114.889 3.574C112.285 3.574 110.367 4.078 109.135 5.086C107.931 6.066 107.329 7.41 107.329 9.118C107.329 10.294 107.609 11.218 108.169 11.89C108.757 12.562 109.667 13.108 110.899 13.528C112.131 13.948 113.699 14.382 115.603 14.83C117.731 15.278 119.565 15.81 121.105 16.426C122.645 17.042 123.835 17.882 124.675 18.946C125.515 19.982 125.935 21.396 125.935 23.188C125.935 24.56 125.669 25.75 125.137 26.758C124.605 27.766 123.863 28.606 122.911 29.278C121.959 29.95 120.825 30.454 119.509 30.79C118.193 31.098 116.751 31.252 115.183 31.252C113.643 31.252 112.159 31.098 110.731 30.79C109.331 30.454 108.001 29.978 106.741 29.362C105.481 28.718 104.305 27.906 103.213 26.926L104.683 24.532C105.215 25.092 105.845 25.624 106.573 26.128C107.329 26.604 108.155 27.038 109.051 27.43C109.975 27.822 110.955 28.13 111.991 28.354C113.055 28.55 114.147 28.648 115.267 28.648C117.647 28.648 119.495 28.214 120.811 27.346C122.155 26.478 122.827 25.19 122.827 23.482C122.827 22.25 122.491 21.27 121.819 20.542C121.147 19.786 120.139 19.17 118.795 18.694C117.451 18.218 115.799 17.756 113.839 17.308C111.767 16.832 110.017 16.3 108.589 15.712C107.161 15.124 106.083 14.354 105.355 13.402C104.655 12.422 104.305 11.134 104.305 9.538C104.305 7.69 104.753 6.136 105.649 4.876C106.573 3.588 107.833 2.622 109.429 1.978C111.025 1.306 112.859 0.969999 114.931 0.969999C116.247 0.969999 117.465 1.11 118.585 1.39C119.733 1.642 120.783 2.02 121.735 2.524C122.715 3.028 123.625 3.658 124.465 4.414L123.037 6.766ZM151.153 28.396V31H131.119V1.18H150.775V3.784H134.059V14.536H148.633V17.014H134.059V28.396H151.153ZM176.747 28.396V31H156.713V1.18H176.369V3.784H159.653V14.536H174.227V17.014H159.653V28.396H176.747ZM182.306 31V1.222H185.246V18.526L201.668 1.18H204.902L192.722 14.284L205.532 31H202.214L190.832 16.048L185.246 21.844V31H182.306Z" fill="white"/>
</svg>
