<svg width="29" height="28" viewBox="0 0 29 28" fill="none" xmlns="http://www.w3.org/2000/svg">
<path d="M19.8534 19.1465L16.4409 15.734C17.1019 14.9175 17.4999 13.88 17.4999 12.75C17.4999 10.131 15.3689 8 12.7499 8C10.131 8 8 10.131 8 12.75C8 15.369 10.131 17.5 12.75 17.5C13.8799 17.5 14.9174 17.102 15.7339 16.441L19.1464 19.8535C19.2439 19.951 19.3719 20 19.4999 20C19.6279 20 19.7559 19.951 19.8534 19.8535C20.0489 19.658 20.0489 19.342 19.8534 19.1465ZM12.75 16.5C10.682 16.5 9 14.818 9 12.75C9 10.682 10.682 8.99998 12.75 8.99998C14.8179 8.99998 16.4999 10.682 16.4999 12.75C16.4999 14.818 14.8179 16.5 12.75 16.5Z" fill="#1E3173"/>
<rect x="1.14307" y="1" width="26" height="26" rx="13" stroke="#1E3173" stroke-width="2"/>
</svg>
