<svg width="42" height="42" viewBox="0 0 42 42" fill="none" xmlns="http://www.w3.org/2000/svg">
<path fill-rule="evenodd" clip-rule="evenodd" d="M39.375 21C39.375 25.8734 37.4391 30.5471 33.9931 33.9931C30.5471 37.4391 25.8734 39.375 21 39.375C16.1266 39.375 11.4529 37.4391 8.00691 33.9931C4.56093 30.5471 2.625 25.8734 2.625 21C2.625 16.1266 4.56093 11.4529 8.00691 8.00691C11.4529 4.56093 16.1266 2.625 21 2.625C25.8734 2.625 30.5471 4.56093 33.9931 8.00691C37.4391 11.4529 39.375 16.1266 39.375 21ZM0 21C0 26.5695 2.21249 31.911 6.15076 35.8492C10.089 39.7875 15.4305 42 21 42C26.5695 42 31.911 39.7875 35.8492 35.8492C39.7875 31.911 42 26.5695 42 21C42 15.4305 39.7875 10.089 35.8492 6.15076C31.911 2.21249 26.5695 0 21 0C15.4305 0 10.089 2.21249 6.15076 6.15076C2.21249 10.089 0 15.4305 0 21ZM30.1875 19.6875C30.5356 19.6875 30.8694 19.8258 31.1156 20.0719C31.3617 20.3181 31.5 20.6519 31.5 21C31.5 21.3481 31.3617 21.6819 31.1156 21.9281C30.8694 22.1742 30.5356 22.3125 30.1875 22.3125H14.9809L20.6168 27.9457C20.7388 28.0678 20.8356 28.2127 20.9016 28.3721C20.9677 28.5315 21.0017 28.7024 21.0017 28.875C21.0017 29.0476 20.9677 29.2185 20.9016 29.3779C20.8356 29.5373 20.7388 29.6822 20.6168 29.8043C20.4947 29.9263 20.3498 30.0231 20.1904 30.0891C20.031 30.1552 19.8601 30.1892 19.6875 30.1892C19.5149 30.1892 19.344 30.1552 19.1846 30.0891C19.0252 30.0231 18.8803 29.9263 18.7582 29.8043L10.8832 21.9293C10.761 21.8073 10.664 21.6625 10.5979 21.503C10.5317 21.3436 10.4977 21.1726 10.4977 21C10.4977 20.8274 10.5317 20.6564 10.5979 20.497C10.664 20.3375 10.761 20.1927 10.8832 20.0707L18.7582 12.1957C18.8803 12.0737 19.0252 11.9769 19.1846 11.9109C19.344 11.8448 19.5149 11.8108 19.6875 11.8108C19.8601 11.8108 20.031 11.8448 20.1904 11.9109C20.3498 11.9769 20.4947 12.0737 20.6168 12.1957C20.7388 12.3178 20.8356 12.4627 20.9016 12.6221C20.9677 12.7815 21.0017 12.9524 21.0017 13.125C21.0017 13.2976 20.9677 13.4685 20.9016 13.6279C20.8356 13.7873 20.7388 13.9322 20.6168 14.0543L14.9809 19.6875H30.1875Z" fill="#1E3173"/>
</svg>
