<svg width="42" height="42" viewBox="0 0 42 42" fill="none" xmlns="http://www.w3.org/2000/svg">
<path fill-rule="evenodd" clip-rule="evenodd" d="M2.625 21C2.625 25.8734 4.56093 30.5471 8.00691 33.9931C11.4529 37.4391 16.1266 39.375 21 39.375C25.8734 39.375 30.5471 37.4391 33.9931 33.9931C37.4391 30.5471 39.375 25.8734 39.375 21C39.375 16.1266 37.4391 11.4529 33.9931 8.00691C30.5471 4.56093 25.8734 2.625 21 2.625C16.1266 2.625 11.4529 4.56093 8.00691 8.00691C4.56093 11.4529 2.625 16.1266 2.625 21ZM42 21C42 26.5695 39.7875 31.911 35.8492 35.8492C31.911 39.7875 26.5695 42 21 42C15.4305 42 10.089 39.7875 6.15076 35.8492C2.21249 31.911 0 26.5695 0 21C0 15.4305 2.21249 10.089 6.15076 6.15076C10.089 2.21249 15.4305 0 21 0C26.5695 0 31.911 2.21249 35.8492 6.15076C39.7875 10.089 42 15.4305 42 21ZM11.8125 19.6875C11.4644 19.6875 11.1306 19.8258 10.8844 20.0719C10.6383 20.3181 10.5 20.6519 10.5 21C10.5 21.3481 10.6383 21.6819 10.8844 21.9281C11.1306 22.1742 11.4644 22.3125 11.8125 22.3125H27.0191L21.3832 27.9457C21.2612 28.0678 21.1644 28.2127 21.0984 28.3721C21.0323 28.5315 20.9983 28.7024 20.9983 28.875C20.9983 29.0476 21.0323 29.2185 21.0984 29.3779C21.1644 29.5373 21.2612 29.6822 21.3832 29.8043C21.5053 29.9263 21.6502 30.0231 21.8096 30.0891C21.969 30.1552 22.1399 30.1892 22.3125 30.1892C22.4851 30.1892 22.656 30.1552 22.8154 30.0891C22.9748 30.0231 23.1197 29.9263 23.2418 29.8043L31.1168 21.9293C31.239 21.8073 31.336 21.6625 31.4021 21.503C31.4683 21.3436 31.5023 21.1726 31.5023 21C31.5023 20.8274 31.4683 20.6564 31.4021 20.497C31.336 20.3375 31.239 20.1927 31.1168 20.0707L23.2418 12.1957C23.1197 12.0737 22.9748 11.9769 22.8154 11.9109C22.656 11.8448 22.4851 11.8108 22.3125 11.8108C22.1399 11.8108 21.969 11.8448 21.8096 11.9109C21.6502 11.9769 21.5053 12.0737 21.3832 12.1957C21.2612 12.3178 21.1644 12.4627 21.0984 12.6221C21.0323 12.7815 20.9983 12.9524 20.9983 13.125C20.9983 13.2976 21.0323 13.4685 21.0984 13.6279C21.1644 13.7873 21.2612 13.9322 21.3832 14.0543L27.0191 19.6875H11.8125Z" fill="#1E3173"/>
</svg>
