<svg width="15" height="15" viewBox="0 0 15 15" fill="none" xmlns="http://www.w3.org/2000/svg">
<path d="M14.1239 7.05098L7.11394 0.966894C7.06013 0.920508 6.99148 0.894531 6.91912 0.894531H5.27703C5.13972 0.894531 5.07664 1.06523 5.18054 1.1543L11.6784 6.79492H0.82019C0.73855 6.79492 0.671753 6.86172 0.671753 6.94336V8.05664C0.671753 8.13828 0.73855 8.20508 0.82019 8.20508H11.6765L5.17869 13.8457C5.07478 13.9366 5.13787 14.1055 5.27517 14.1055H6.97292C7.00818 14.1055 7.04343 14.0925 7.06941 14.0684L14.1239 7.94902C14.1881 7.89317 14.2396 7.82418 14.2749 7.74672C14.3102 7.66926 14.3285 7.58512 14.3285 7.5C14.3285 7.41488 14.3102 7.33074 14.2749 7.25328C14.2396 7.17582 14.1881 7.10683 14.1239 7.05098V7.05098Z" fill="white"/>
</svg>
