<svg width="15" height="15" viewBox="0 0 15 15" fill="none" xmlns="http://www.w3.org/2000/svg">
<path d="M14.124 7.05098L7.11406 0.966894C7.06025 0.920508 6.9916 0.894531 6.91924 0.894531H5.27715C5.13984 0.894531 5.07676 1.06523 5.18066 1.1543L11.6785 6.79492H0.820312C0.738672 6.79492 0.671875 6.86172 0.671875 6.94336V8.05664C0.671875 8.13828 0.738672 8.20508 0.820312 8.20508H11.6767L5.17881 13.8457C5.0749 13.9366 5.13799 14.1055 5.27529 14.1055H6.97305C7.0083 14.1055 7.04355 14.0925 7.06953 14.0684L14.124 7.94902C14.1883 7.89317 14.2398 7.82418 14.2751 7.74672C14.3103 7.66926 14.3286 7.58512 14.3286 7.5C14.3286 7.41488 14.3103 7.33074 14.2751 7.25328C14.2398 7.17582 14.1883 7.10683 14.124 7.05098V7.05098Z" fill="#1E3173"/>
</svg>
